<svg width="200" height="39" viewBox="0 0 200 39" fill="none" xmlns="http://www.w3.org/2000/svg">
<path d="M25.4298 28.639H18.4435C15.6401 28.639 10.3284 26.9422 10.3284 20.5239C10.3284 14.1056 15.6401 12.4088 18.4435 12.4088H25.4298L24.5667 15.3598H18.7902C18.2664 15.3671 13.6261 15.5516 13.6261 20.5239C13.6261 25.5405 18.259 25.6881 18.7902 25.6881H24.5667L25.4298 28.639Z" fill="white"/>
<path d="M170.277 28.639H163.29C160.487 28.639 155.175 26.9422 155.175 20.5239C155.175 14.1056 160.487 12.4088 163.29 12.4088H170.277L169.414 15.3598H163.637C163.113 15.3671 158.473 15.5516 158.473 20.5239C158.473 25.5405 163.106 25.6881 163.637 25.6881H169.414L170.277 28.639Z" fill="white"/>
<path d="M95.7801 12.4088H100.207C102.848 12.4088 105.002 14.563 105.002 17.2041C105.002 19.8452 102.501 21.9994 99.8598 21.9994H91.1176C91.9291 25.57 95.6547 25.6881 96.1269 25.6881H103.017L103.88 28.639H95.7801C92.9767 28.639 87.665 26.9422 87.665 20.5239C87.665 14.1056 92.9694 12.4088 95.7801 12.4088ZM99.8598 19.0484C100.878 19.0484 101.704 18.2222 101.704 17.2041C101.704 16.186 100.878 15.3598 99.8598 15.3598H96.1269C95.6621 15.3671 91.9365 15.5147 91.1176 19.0484H99.8598Z" fill="white"/>
<path d="M37.6169 12.4088H35.6029C32.7995 12.4088 27.4878 14.1056 27.4878 20.5239C27.4878 26.9422 32.7995 28.639 35.6029 28.639H37.6169C40.4203 28.639 45.732 26.9422 45.732 20.5239C45.732 14.1056 40.4203 12.4088 37.6169 12.4088ZM37.2628 25.6881H35.9496C35.4258 25.6881 30.7855 25.5479 30.7855 20.5239C30.7855 15.5589 35.4258 15.3671 35.9496 15.3598H37.2702C37.794 15.3598 42.4343 15.5073 42.4343 20.5239C42.4343 25.4889 37.8013 25.6807 37.2628 25.6881Z" fill="white"/>
<path d="M66.4038 28.639H63.1062V20.5239C63.1062 15.5073 58.4732 15.3598 57.942 15.3598H53.1246V28.639H49.8269V12.4088H58.2887C61.0921 12.4088 66.4038 14.1056 66.4038 20.5239V28.639Z" fill="white"/>
<path d="M125.843 28.639H122.545V20.5239C122.545 15.5073 117.912 15.3598 117.381 15.3598H112.564V28.639H109.266V12.4088H117.728C120.531 12.4088 125.843 14.1056 125.843 20.5239V28.639Z" fill="white"/>
<path d="M138.406 25.6881C137.875 25.6881 133.242 25.5405 133.242 20.5239V19.7862H141.372L142.235 16.8352H133.25V12.4088H129.952V20.5239C129.952 26.9422 135.264 28.639 138.067 28.639H145.053L144.19 25.6881H138.406Z" fill="white"/>
<path d="M78.9671 25.6881C78.436 25.6881 73.803 25.5405 73.803 20.5239V19.7862H81.9329L82.796 16.8352H73.8104V12.4088H70.5127V20.5239C70.5127 26.9422 75.8244 28.639 78.6278 28.639H85.6142L84.751 25.6881H78.9671Z" fill="white"/>
<path d="M151.074 12.4088H147.776V28.639H151.074V12.4088Z" fill="white"/>
<path d="M145.851 2.86242C145.836 2.92882 145.828 2.98784 145.814 3.05424C145.777 3.2608 145.747 3.46735 145.747 3.6813C145.747 3.92475 145.769 4.16083 145.821 4.38215C145.865 4.60348 145.932 4.8248 146.013 5.03137C146.551 6.3888 147.872 7.35525 149.429 7.35525C151.221 7.35525 152.704 6.07157 153.036 4.38215C153.08 4.15346 153.103 3.92475 153.11 3.6813V3.67391C153.11 3.45997 153.088 3.25342 153.044 3.04685C153.029 2.98046 153.021 2.92143 153.007 2.85504C152.97 2.70011 152.925 2.55258 152.866 2.41241C152.822 2.30175 152.778 2.19108 152.726 2.08042C152.129 0.848402 150.882 0 149.429 0C147.975 0 146.721 0.855779 146.131 2.08042C146.079 2.19108 146.035 2.29437 145.991 2.41241C145.932 2.55996 145.887 2.7075 145.851 2.86242Z" fill="#FF4848"/>
<path d="M181.557 2.08032H155.854C155.98 2.58936 156.053 3.12789 156.053 3.67381C156.053 4.13859 156.002 4.596 155.913 5.03127H181.549C189.06 5.03127 197.042 10.461 197.042 20.5237C197.042 30.5865 189.06 36.0162 181.549 36.0162H18.436C10.9259 36.0162 2.94356 30.5865 2.94356 20.5237C2.94356 10.461 10.9259 5.03127 18.436 5.03127H142.936C142.848 4.596 142.796 4.13859 142.796 3.67381C142.796 3.12051 142.87 2.58936 142.995 2.08032H18.4434C9.50204 2.08032 0 8.54289 0 20.5237C0 32.5046 9.50204 38.9671 18.4434 38.9671H181.557C190.498 38.9671 200 32.5046 200 20.5237C200 8.54289 190.498 2.08032 181.557 2.08032Z" fill="#FF4848"/>
<path d="M181.557 12.4088H174.571L175.434 15.3598H181.211C181.683 15.3598 185.408 15.4778 186.22 19.0484H177.478C174.837 19.0484 172.336 21.2026 172.336 23.8437C172.336 26.4848 174.49 28.639 177.131 28.639H181.557C182.841 28.639 184.641 28.2775 186.22 27.2816V27.2889L186.869 28.6242H189.672V20.5239C189.672 14.1056 184.361 12.4088 181.557 12.4088ZM181.211 25.6881H177.478C176.46 25.6881 175.633 24.8618 175.633 23.8437C175.633 22.8256 176.46 21.9994 177.478 21.9994H186.213C185.401 25.5331 181.675 25.6807 181.211 25.6881Z" fill="white"/>
</svg>
